<svg xmlns="http://www.w3.org/2000/svg" viewBox="0 0 55.701 25.658">
  <path fill="#2966cc" d="m55.656 14.413-.002-.137c-.097-.312-.127-.673-.281-.943-.158-.7-.464-1.036-.947-1.082-.737-.071-1.477-.039-2.21-.197-.31-.076-.618-.166-.929-.224-.253-.048-.51-.057-.766-.083-.159-.02-.316-.078-.477-.046-.68-.116-1.363-.153-2.045-.215-.281-.025-.58.038-.775-.404-.048-.109-.142-.094-.22-.107-.08-.012-.152-.028-.188-.176-.049-.2-.136-.364-.223-.53-.053-.102-.131-.208-.059-.385.065-.157.144-.103.227-.099.409.021.815.132 1.225.098.216.113.439.093.66.094.394.072.792.2 1.126-.289.035-.061.029-.132.022-.2.058-.242.223-.225.387-.212.006 0 .013-.005.02-.008.079-.373.082-.786.25-1.112.018-.034.016-.079.004-.122a.248.248 0 0 0 .063-.028.356.356 0 0 1 .04-.04l.043-.001c.474-.069.952-.048 1.423-.168.211.02.401-.055.551-.304.049-.132.127-.24.133-.405a1.26 1.26 0 0 0-.022-.692l-.141-.594a.79.79 0 0 0-.137-.403c-.025-.247-.072-.477-.201-.645l-.18-.337c-.04-.254-.17-.405-.277-.582-.044-.047-.046-.177-.125-.156a.065.065 0 0 0-.01-.049c-.097-.353-.298-.58-.445-.873-.105-.209-.18-.486-.366-.574a.436.436 0 0 1 .009.043l-.009-.043a.99.99 0 0 0-.61-.306c-.22-.177-.46-.182-.697-.223-.021-.017-.045-.027-.067-.023a4.479 4.479 0 0 0-1.202-.24 1.688 1.688 0 0 0-.646-.092c-.394-.196-.807-.18-1.211-.248a93.587 93.587 0 0 0-3.499-.515c-.413-.053-.827-.169-1.245-.092-.06-.08-.134-.07-.206-.08-1.226-.177-2.46-.117-3.689-.255a12.81 12.81 0 0 0-2.14-.042c-.142-.093-.29-.022-.434-.042-.076-.05-.155-.01-.232-.013-.212-.01-.424.066-.637.003l-3.157.192c-.072.071-.153.038-.23.048-.34.041-.685.007-1.025.092l-.125.015a.132.132 0 0 0-.002.064c-.068-.056-.14-.02-.21-.018-.386.013-.766.16-1.155.136a1.47 1.47 0 0 1-.062.076l.003-.039a5.27 5.27 0 0 0-1.34.085l-.185.065-.42.037c-.042-.002-.085-.012-.127-.006-1.18.166-2.358.334-3.536.504-.034.005-.065.04-.098.06-.803.167-1.605.35-2.41.495-.858.156-1.72.256-2.576.42-.994.191-1.99.361-2.97.706-.343.12-.683.302-1.04.29-1.282-.043-2.564-.09-3.845-.14-1.615-.064-3.23-.101-4.846-.053-1.117.033-2.234.112-3.35.17-.36-.037-.72-.106-1.078-.096-.154.004-.37-.027-.437.33-.104.183.042.434-.068.616l.008.337c.12.195-.015.481.1.677l.043.07c.018.066.048.111.092.133.052.161.156.235.249.305.19.146.272.349.26.69-.009.292.084.52.257.687.438.42.918.57 1.42.588.142.005.171.067.174.285.007.553-.028 1.127.215 1.605-.046.394.038.765.078 1.145.085.452.334.614.574.793l.084.055c.097.12.206.055.311.048l.05.052c.116.072.119-.086.15-.184.025-.074.017-.195.097-.188.065.005.082.11.12.172.137.222.12.514.158.78v.013c-.022.087.003.186-.027.27.047.417.054.849.208 1.239-.435.155-.855.302-1.274.455-.638.232-1.275.467-1.913.701-.28.057-.56.128-.822.31-.037.005-.068.023-.078.087a.108.108 0 0 0-.034.027l-.046.054c.004.078-.002.169.044.217.181.195.151.443.09.715-.08.351-.116.715-.082 1.089l.042.07c-.005.142.07.162.13.206.071.13.161.21.265.257.087.064.16.178.265.178l.26.124c.171.11.35.126.532.084l.086-.013.02.008.02-.005c.192.012.384.015.57-.08.16-.044.327.01.481-.098 2.607-.52 6.53-1.022 6.884-.867-.481.09-.936.191-1.392.26-1.418.213-2.83.5-4.23.9-.474.137-.95.266-1.411.485-.186.089-.378.181-.443.526-.073.085-.043.206-.041.312.007.416.001.834.033 1.246.056.725.007 1.48.233 2.162.016.067.047.11.088.139.428.565.94.688 1.47.623.824-.102 1.645-.263 2.47-.368 1.16-.147 2.32-.37 3.489-.203.235.033.47.073.707.058.035.02.07.017.107.017.088 0 .177-.005.265-.011.372.006.743.014 1.114.007l.106-.001a.424.424 0 0 0 .08-.001c.716-.012 1.43-.016 2.146-.03.603-.011 1.207.017 1.811.015.03.013.058.027.082.005l.023.001c.004.002.007.003.01.006h.096c.725.04 1.45.087 2.176.107.322.009.644.078.967.006.215.011.43.02.647.034 1.942.124 3.882-.056 5.823-.116 1.143-.035 2.287-.013 3.43-.105.255.086.51-.006.764-.013.587-.013 1.174-.058 1.761-.017l.983.088a9.94 9.94 0 0 0 1.751.232c.103.066.213.05.32.058.74.055 1.48.143 2.219.21 1.033.092 2.064.263 3.095.407.988.137 1.975.29 2.964.421.536.071 1.07.183 1.61.17.025.02.049.055.074.058.831.084 1.662.165 2.493.246l.168.005a.04.04 0 0 0 .029.007c.785.18 1.576.245 2.367.315.155.036.31.067.466.049.02.012.04.018.058.017l.086.026c.196.05.395.019.59.071h.018l.004.022c.115.003.23-.006.342.057a1.21 1.21 0 0 1 .004-.055l.123-.024c.028-.09.047-.185.08-.273.104-.278.191-.54.172-.903a.881.881 0 0 1 .31-.717c.157-.129.196.11.289.18.086.067.177.143.261.03.088-.118.207-.232.132-.469-.05-.048-.04-.133-.05-.206-.084-.044-.205.075-.253-.1-.046-.165.1-.193.126-.317a.111.111 0 0 0-.005-.063 57.93 57.93 0 0 1-.05-.128c-.009-.037-.02-.066-.05-.056-.062-.073-.041-.237-.128-.283l-.095-.189c-.025-.088-.064-.144-.13-.14-.658-.405-1.358-.47-2.049-.609l-1.312-.329c-.67-.266-1.356-.37-2.042-.485-.03-.073-.11-.004-.133-.103l.346-.07a.754.754 0 0 0 .178-.035l.116-.016 1.548-.089a.094.094 0 0 0 .05.02c.145.05.293.01.44.025.443.044.75-.253.936-.876l.157-.287c.125-.094.17-.294.186-.467.024-.26.116-.258.237-.252.286.015.573.023.86.034.214.074.431.027.647.029.44.107.884.02 1.326.052.22.017.432-.114.623-.301.123-.046.154-.214.2-.364.086-.208.032-.404-.023-.597-.048-.167-.023-.254.1-.252.043 0 .086.005.124-.033-.013-.118.02-.25-.049-.348l-.012-.194.038-.206c.068-.144.195-.21.221-.41.01.003.02-.001.028-.013.13-.434.194-.88.1-1.356zm-7.523-4.585v-.002h.003l-.003.002zm1.783-.63v-.034l.014.033-.014.002zm.741-1.38.002.053-.015.001.013-.053zm1.623-.104v-.003l.004.003h-.004zM5.03 11.268c.003-.006.004-.013.006-.019l.009.018-.014.001zm7.988 11.98v.001zm9.908-21.923v.008c0-.003-.002-.006-.004-.008h.004zm29.057 23.16c-.003.015-.004.03-.006.046a.134.134 0 0 0-.019-.033c.009-.005.016-.01.025-.013z"/>
</svg>
