<svg xmlns="http://www.w3.org/2000/svg" viewBox="0 0 110.924 31.226">
  <path fill="#2966cc" fill-rule="evenodd" d="M10.78 0c5.954 0 10.78 4.826 10.78 10.78 0 6.1-6.097 10.506-10.364 14.657a.596.596 0 0 1-.832 0C6.1 21.285 0 16.88 0 10.78 0 4.826 4.826 0 10.78 0Zm1.08 9.585h-.426a.152.152 0 0 1-.152-.15v-.503a.149.149 0 0 1 .094-.14 1.637 1.637 0 0 0 1.045-1.51c0-2.125-3.28-2.127-3.28 0 0 .68.431 1.263 1.044 1.51a.149.149 0 0 1 .094.14v.502a.152.152 0 0 1-.15.151H9.7a.152.152 0 0 0-.151.151v.071c0 .083.068.151.151.151h.427c.083 0 .151.068.151.151v.022h-.574a.152.152 0 0 0-.15.152v.069c0 .082.067.15.15.15h.423c.083 0 .151.069.151.152v2.785a.145.145 0 0 1-.05.113.144.144 0 0 1-.12.036c-.642-.08-1.197-.383-1.698-.817a.146.146 0 0 1-.052-.109.146.146 0 0 1 .045-.112l.464-.454a.148.148 0 0 0 .038-.153.15.15 0 0 0-.12-.104l-2.459-.41a.149.149 0 0 0-.13.04.148.148 0 0 0-.045.13l.354 2.47a.146.146 0 0 0 .102.121.149.149 0 0 0 .153-.035l.516-.504a.151.151 0 0 1 .204-.007c.838.716 1.77 1.138 2.887 1.195a.148.148 0 0 1 .141.127l.094.563a.15.15 0 0 0 .15.127h.053a.15.15 0 0 0 .15-.127l.093-.564a.151.151 0 0 1 .141-.126c1.12-.057 2.05-.479 2.89-1.195a.15.15 0 0 1 .202.007l.515.504c.042.041.1.054.154.035a.15.15 0 0 0 .101-.12l.354-2.471a.145.145 0 0 0-.044-.13.146.146 0 0 0-.13-.04l-2.46.41a.148.148 0 0 0-.118.104.146.146 0 0 0 .039.153l.464.454c.03.03.047.07.045.112a.146.146 0 0 1-.052.11c-.501.434-1.055.736-1.699.817a.147.147 0 0 1-.119-.036.145.145 0 0 1-.05-.113v-2.786a.15.15 0 0 1 .15-.15h.419a.151.151 0 0 0 .15-.152v-.069a.152.152 0 0 0-.15-.15h-.57v-.023c0-.082.068-.15.152-.15h.427a.152.152 0 0 0 .15-.152v-.07a.152.152 0 0 0-.15-.152zm-.265-2.303a.853.853 0 0 1-.711.829.151.151 0 0 0-.103.071.148.148 0 0 0-.103-.071.853.853 0 0 1-.712-.83c0-1.128 1.63-1.128 1.63 0zm-.381-6.174a.15.15 0 1 1-.078.279 9.666 9.666 0 0 0-9.99 9.378l-.002-.005a.139.139 0 1 1-.267.057c0-.027.008-.053.022-.074H.897c.013-5.327 4.337-9.641 9.667-9.641.2 0 .398.006.595.017l-.002.002a.156.156 0 0 1 .057-.011ZM10.78 2.86a7.921 7.921 0 0 1 3.276 15.135 7.896 7.896 0 0 1-3.276.707 7.9 7.9 0 0 1-3.322-.728A7.923 7.923 0 0 1 10.78 2.86Z"/>
  <path fill="#2966cc" d="m110.855 14.437-.004-.136c-.151-.312-.198-.673-.439-.943-.246-.7-.724-1.036-1.48-1.083-1.15-.07-2.306-.039-3.451-.197-.484-.076-.965-.166-1.45-.224-.397-.047-.798-.057-1.198-.083-.248-.02-.494-.078-.746-.046-1.061-.115-2.128-.153-3.193-.215-.44-.025-.906.039-1.212-.404-.075-.108-.221-.094-.344-.106-.125-.013-.238-.029-.293-.176-.077-.2-.213-.365-.348-.531-.083-.101-.206-.207-.092-.385.1-.157.224-.103.354-.099.639.022 1.273.133 1.914.099.337.112.685.092 1.032.094.614.071 1.237.198 1.758-.29.054-.061.045-.132.034-.2.09-.242.349-.225.604-.211.01 0 .022-.006.033-.009.122-.372.126-.786.39-1.111.028-.034.024-.08.006-.122a.515.515 0 0 0 .098-.03.515.515 0 0 1 .063-.04h.067c.74-.068 1.487-.048 2.224-.167.33.019.626-.055.86-.304.076-.133.198-.24.208-.406a.827.827 0 0 0-.035-.692l-.22-.593a.634.634 0 0 0-.215-.404c-.038-.246-.112-.476-.313-.644l-.283-.337c-.062-.255-.264-.406-.431-.583-.07-.047-.072-.176-.195-.156a.047.047 0 0 0-.015-.049c-.153-.353-.466-.58-.696-.873-.164-.209-.28-.485-.572-.574.006.014.01.029.014.043l-.014-.043a1.977 1.977 0 0 0-.954-.306c-.342-.177-.718-.181-1.088-.223a.191.191 0 0 0-.105-.023 10.534 10.534 0 0 0-1.877-.24 4.01 4.01 0 0 0-1.01-.092c-.615-.196-1.26-.18-1.892-.248A224.11 224.11 0 0 0 90.884.56c-.646-.053-1.292-.169-1.946-.092-.093-.08-.209-.07-.32-.08C86.7.211 84.774.271 82.854.134A31.22 31.22 0 0 0 79.51.092c-.22-.093-.452-.022-.677-.042-.12-.05-.242-.01-.363-.014-.331-.009-.663.067-.994.003l-4.932.193c-.113.07-.24.038-.36.047-.533.041-1.07.007-1.6.093l-.197.014a.086.086 0 0 0-.003.064c-.106-.056-.218-.02-.326-.018-.604.013-1.198.161-1.806.136-.031.027-.064.051-.097.076l.005-.038c-.7-.026-1.398-.004-2.093.085l-.29.064-.654.037c-.067-.002-.135-.012-.2-.006-1.842.166-3.684.334-5.525.504-.052.005-.101.04-.152.06-1.255.167-2.508.35-3.766.496-1.339.156-2.685.255-4.023.42-1.553.19-3.11.36-4.641.705-.535.12-1.065.302-1.624.29a1468.5 1468.5 0 0 1-6.007-.14c-2.523-.063-5.046-.101-7.57-.053-1.745.034-3.49.112-5.234.17-.561-.036-1.123-.105-1.684-.096-.24.004-.576-.027-.682.33-.162.183.065.434-.106.616l.013.338c.186.194-.024.48.157.677l.065.07c.029.065.075.11.144.132.082.162.245.235.39.306.297.145.424.348.407.69-.015.291.13.52.4.687.684.42 1.434.57 2.218.588.223.005.268.067.272.284.011.553-.044 1.127.336 1.606-.072.393.059.765.121 1.144.133.452.523.614.897.793l.133.055c.151.12.32.055.485.048l.076.052c.183.073.187-.085.237-.184.038-.074.026-.195.151-.188.102.006.128.11.188.172.214.222.187.514.247.78l-.001.013c-.034.088.004.186-.042.271.074.417.084.848.324 1.238-.68.155-1.335.303-1.99.455-.996.232-1.992.467-2.987.701-.44.058-.876.128-1.285.31-.058.005-.107.023-.122.087a.182.182 0 0 0-.054.027l-.071.054c.006.078-.003.17.068.218.284.195.237.443.14.714a2.27 2.27 0 0 0-.128 1.09l.066.07c-.006.142.11.162.204.206.11.129.252.21.414.256.136.064.25.178.414.179l.405.123c.269.11.547.127.831.084l.135-.012.031.008.032-.005c.3.012.6.014.891-.081.25-.043.51.01.751-.098 4.072-.519 10.2-1.022 10.754-.867-.752.091-1.462.191-2.175.26-2.215.214-4.42.5-6.609.901-.74.136-1.482.265-2.204.485-.29.088-.59.18-.692.525-.112.085-.066.206-.063.312.01.416.002.835.051 1.246.088.726.012 1.481.365 2.162a.235.235 0 0 0 .137.139c.668.565 1.467.689 2.296.623 1.288-.102 2.57-.263 3.859-.367 1.813-.148 3.625-.37 5.45-.204.368.034.735.073 1.105.059.054.02.11.016.166.016.14 0 .278-.005.416-.01.58.006 1.16.013 1.74.006l.166-.001c.041.002.083.002.125-.001 1.117-.012 2.234-.015 3.352-.03.941-.011 1.885.018 2.829.016.045.013.09.026.128.004l.037.001.014.006c.05.002.1.001.15 0 1.134.04 2.266.087 3.4.107.502.01 1.006.078 1.51.006.337.012.674.02 1.01.034 3.035.125 6.066-.056 9.099-.115 1.785-.035 3.572-.014 5.356-.106.399.086.797-.006 1.195-.012.917-.014 1.834-.058 2.75-.017l1.536.087c.907.14 1.82.198 2.736.232.161.066.332.05.5.058 1.156.056 2.31.143 3.466.21 1.615.092 3.225.264 4.836.407 1.543.138 3.085.291 4.63.422.837.07 1.672.182 2.515.169.039.02.076.056.116.058 1.298.084 2.596.165 3.894.247l.262.005a.09.09 0 0 0 .046.006c1.226.181 2.462.245 3.698.315.241.037.483.067.728.05a.23.23 0 0 0 .09.017l.135.026c.305.048.616.018.922.07h.027l.006.022c.18.003.36-.006.534.057a.788.788 0 0 1 .008-.054l.192-.024c.044-.09.073-.186.124-.273.162-.278.3-.54.269-.904-.024-.288.182-.558.483-.716.246-.13.308.109.452.18.135.067.277.142.41.029.136-.118.322-.232.205-.469-.08-.048-.064-.133-.08-.206-.13-.044-.319.075-.394-.1-.071-.165.157-.193.198-.316a.074.074 0 0 0-.009-.063 48.387 48.387 0 0 1-.079-.129c-.013-.036-.03-.066-.077-.056-.097-.072-.065-.237-.2-.283l-.148-.189c-.039-.088-.1-.144-.203-.139-1.029-.406-2.122-.471-3.2-.61l-2.05-.329c-1.048-.265-2.12-.37-3.19-.484-.049-.074-.174-.005-.21-.104l.542-.069c.093-.005.186-.015.278-.035l.18-.017 2.42-.088a.2.2 0 0 0 .076.02c.227.049.459.01.688.024.693.044 1.173-.253 1.463-.876l.246-.286c.195-.095.266-.295.29-.467.037-.26.18-.259.37-.253.447.015.895.023 1.343.034.336.074.674.027 1.012.03.687.106 1.38.019 2.07.052.344.016.676-.114.973-.302.193-.046.242-.214.314-.364.135-.208.05-.403-.036-.596-.075-.168-.036-.255.156-.253.066 0 .134.006.193-.033-.02-.117.032-.25-.075-.348l-.02-.194.06-.205c.106-.144.305-.21.345-.41a.048.048 0 0 0 .043-.013c.203-.435.304-.882.157-1.357zM99.102 9.852V9.85h.005l-.005.002zm2.786-.629a.627.627 0 0 1-.001-.034l.022.033-.021.001zm1.158-1.38a.56.56 0 0 0 .003.052l-.024.001.02-.053zm2.535-.105v-.002l.005.002h-.005zm-73.813 3.555.008-.02.014.019h-.022zm12.477 11.98v.001-.001zM59.724 1.349v.008l-.006-.008h.006zm45.393 23.16-.01.047a.132.132 0 0 0-.028-.034c.013-.004.025-.01.038-.013z"/>
  <path fill="#fad61d" d="M45.118 15.734v-3.368c0-.301-.045-.577-.133-.823a1.421 1.421 0 0 0-.473-.637c-.228-.178-.543-.318-.94-.416-.4-.098-.905-.148-1.516-.148-.614 0-1.119.05-1.521.148-.402.098-.717.238-.945.416a1.421 1.421 0 0 0-.473.637 2.451 2.451 0 0 0-.133.823v3.368c0 .305.045.58.133.826.09.246.248.458.473.632.228.175.543.312.945.41.402.098.907.149 1.521.149.611 0 1.117-.05 1.516-.149.397-.098.712-.235.94-.41.225-.174.383-.386.473-.632.088-.246.133-.521.133-.826zm-3.892-.354v-2.657c0-.124.05-.232.148-.322.1-.088.325-.133.682-.133.355 0 .582.045.68.133.1.09.148.198.148.322v2.657a.42.42 0 0 1-.148.33c-.098.09-.325.133-.68.133-.357 0-.582-.042-.682-.132a.43.43 0 0 1-.148-.331zm10.668 2.222c.632 0 1.132-.15 1.497-.45.365-.298.548-.727.548-1.288v-1.037c0-.553-.143-.947-.426-1.185-.283-.239-.654-.39-1.114-.456l-1.474-.195a.26.26 0 0 1-.196-.1.33.33 0 0 1-.071-.218.32.32 0 0 1 .071-.212.24.24 0 0 1 .196-.084h2.302c.124 0 .217-.027.273-.085.055-.055.082-.145.082-.27v-1.174c0-.127-.027-.217-.082-.273-.056-.056-.149-.085-.273-.085h-2.765c-.64 0-1.14.151-1.503.45-.362.3-.542.73-.542 1.289v1.037c0 .553.14.95.42 1.185.278.238.649.39 1.112.455l1.481.207c.085.008.149.037.191.09.045.052.066.135.066.246a.312.312 0 0 1-.066.203c-.042.056-.106.082-.19.082h-2.66c-.124 0-.214.03-.27.085-.055.056-.084.148-.084.273v1.156c0 .124.029.214.085.27.055.055.145.084.27.084zm-.366-9.205c-.11.027-.214.04-.307.04a1.29 1.29 0 0 1-.304-.04l-1.354-.396c-.172-.053-.284-.059-.336-.019-.053.04-.08.148-.08.326v.799c0 .18.03.293.085.346.055.053.166.111.33.177l1.355.495a.64.64 0 0 0 .148.04c.05.005.109.01.167.01.058-.007.124-.018.193-.031a.91.91 0 0 0 .193-.058l1.262-.456c.16-.066.268-.124.323-.177.056-.053.082-.167.082-.346v-.8c0-.177-.024-.285-.077-.325-.052-.04-.16-.034-.328.019zm7.644 9.205a.64.64 0 0 0 .312-.068.477.477 0 0 0 .194-.257l.968-2.421c.058-.146.108-.27.148-.381a3.51 3.51 0 0 0 .098-.31 1.92 1.92 0 0 0 .056-.312 6.09 6.09 0 0 0 .013-.4v-2.605c0-.127-.027-.217-.085-.273-.055-.056-.145-.085-.27-.085h-1.55c-.127 0-.217.03-.273.085-.055.056-.084.146-.084.273v2.714c0 .066-.006.132-.019.199a1.38 1.38 0 0 1-.06.206l-.464 1.394a.318.318 0 0 1-.069.133c-.026.023-.066.034-.119.034h-.108c-.053 0-.093-.01-.12-.034a.29.29 0 0 1-.068-.133l-.463-1.383a1.477 1.477 0 0 1-.06-.207 1.008 1.008 0 0 1-.02-.198v-2.725c0-.127-.034-.217-.1-.273a.433.433 0 0 0-.286-.085h-1.569c-.127 0-.217.03-.272.085-.056.056-.085.146-.085.273v2.606c0 .158.005.29.016.4.008.108.026.214.053.311.026.098.06.201.1.31.04.111.088.235.149.381l.965 2.42a.477.477 0 0 0 .194.258.649.649 0 0 0 .312.068zm7.943 0c.124 0 .214-.029.273-.084.055-.056.082-.146.082-.27v-1.156c0-.125-.027-.217-.082-.273-.059-.056-.149-.085-.273-.085H64.39v-.849h1.926c.124 0 .214-.026.27-.082.055-.058.084-.148.084-.272v-1.056c0-.127-.029-.217-.084-.273-.056-.055-.146-.084-.27-.084H64.39v-.76h2.725c.124 0 .214-.029.273-.084.055-.056.082-.146.082-.273v-1.153c0-.127-.027-.217-.082-.273-.059-.056-.149-.085-.273-.085h-4.583c-.127 0-.217.03-.272.085-.056.056-.085.146-.085.273v6.4c0 .124.03.214.085.27.055.055.145.084.272.084zm-.386-7.863c.127-.013.217-.042.272-.093.056-.05.085-.137.085-.262v-.947c0-.114-.03-.198-.085-.256-.055-.061-.14-.085-.251-.072l-3.448.426a.505.505 0 0 0-.272.093c-.056.05-.082.137-.082.262v.95c0 .11.026.195.082.256.055.058.14.082.251.069zm5.59 7.863c.823 0 1.434-.164 1.834-.494.397-.329.598-.837.598-1.522v-3.08c0-.685-.201-1.193-.598-1.52-.4-.332-1.01-.496-1.834-.496h-3.328c-.124 0-.214.03-.27.085-.058.056-.085.146-.085.273v6.4c0 .124.027.214.085.27.056.055.146.084.27.084Zm-1.442-5.225h1.178c.156 0 .272.037.349.114.077.076.114.195.114.36v2.402c0 .164-.037.286-.114.365-.077.077-.193.116-.35.116h-1.177Zm8.427 5.225c.633 0 1.13-.15 1.495-.45.365-.298.548-.727.548-1.288v-1.037c0-.553-.14-.947-.423-1.185-.284-.239-.657-.39-1.117-.456l-1.471-.195a.265.265 0 0 1-.198-.1.343.343 0 0 1-.07-.218.33.33 0 0 1 .07-.212.245.245 0 0 1 .198-.084h2.302c.124 0 .214-.027.27-.085.055-.055.084-.145.084-.27v-1.174c0-.127-.029-.217-.084-.273-.056-.056-.146-.085-.27-.085H77.87c-.637 0-1.137.151-1.5.45-.362.3-.542.73-.542 1.289v1.037c0 .553.137.95.418 1.185.28.238.65.39 1.111.455l1.482.207c.087.008.15.037.193.09.042.052.063.135.063.246 0 .079-.02.148-.063.203-.043.056-.106.082-.193.082h-2.657c-.124 0-.217.03-.272.085-.056.056-.082.148-.082.273v1.156c0 .124.026.214.082.27.055.055.148.084.272.084Zm5.006 0c.127 0 .217-.029.273-.084.055-.056.084-.146.084-.27v-2.262h1.305c.103 0 .182.029.235.087.053.06.08.143.08.249v1.926c0 .124.029.214.084.27.056.055.146.084.27.084h1.522c.127 0 .217-.029.272-.084.056-.056.085-.146.085-.27v-2.786c0-.394-.111-.715-.331-.953-.222-.24-.516-.37-.884-.391l1.006-2.302c.047-.106.05-.185.01-.241-.04-.056-.113-.085-.227-.085h-1.522a.552.552 0 0 0-.304.074.499.499 0 0 0-.188.252l-1.018 2.302h-.395v-2.27c0-.127-.029-.217-.084-.273-.056-.056-.146-.085-.273-.085h-1.529c-.127 0-.217.03-.273.085-.055.056-.084.146-.084.273v6.4c0 .124.029.214.084.27.056.055.146.084.273.084zm11.539-1.868v-4.886c0-.127-.03-.217-.085-.273-.055-.056-.145-.085-.272-.085h-1.5c-.125 0-.218.03-.273.085-.056.056-.082.146-.082.273v4.503a.43.43 0 0 1-.148.33c-.1.088-.323.133-.672.133-.344 0-.564-.045-.662-.133a.422.422 0 0 1-.148-.33v-4.503c0-.127-.03-.217-.085-.273-.055-.056-.148-.085-.272-.085H90.1c-.125 0-.215.03-.273.085-.056.056-.082.146-.082.273v4.886c0 .305.042.58.132.826s.246.458.474.632c.227.175.54.312.934.41.394.098.9.149 1.51.149.614 0 1.117-.05 1.511-.149.397-.098.707-.235.934-.41a1.37 1.37 0 0 0 .474-.632 2.39 2.39 0 0 0 .135-.826z"/>
  <path fill="#2966cc" d="M58.654 27.448a.257.257 0 0 1 .06-.095.117.117 0 0 1 .08-.032h.185c.03 0 .056.01.077.032a.23.23 0 0 1 .063.095l.35 1.127h-1.165zm-.424 3.51v-1.036h1.313v1.037c0 .095.02.161.068.204.048.042.12.063.22.063h1.12c.092 0 .16-.021.203-.063.04-.043.06-.109.06-.204v-1.955c0-.149-.02-.318-.068-.511a5.442 5.442 0 0 0-.22-.675l-.643-1.683a.373.373 0 0 0-.137-.185.429.429 0 0 0-.233-.058h-1.995a.445.445 0 0 0-.24.058.355.355 0 0 0-.136.185l-.645 1.683a5.928 5.928 0 0 0-.22.675 2.29 2.29 0 0 0-.069.51v1.956c0 .095.022.161.064.204.04.042.108.063.204.063h1.087c.095 0 .161-.021.204-.063.042-.043.063-.109.063-.204zm7.972.268c.093 0 .162-.021.204-.063.042-.043.063-.109.063-.204V27.32h1.088c.095 0 .161-.021.204-.061.042-.042.063-.111.063-.204v-.897c0-.095-.021-.161-.063-.203-.043-.043-.109-.064-.204-.064h-3.91c-.096 0-.162.021-.204.064-.043.042-.064.108-.064.203v.897c0 .093.021.162.064.204.042.04.108.06.203.06h1.088v3.639c0 .095.02.161.063.204.043.042.111.063.204.063zm3.977-3.778a.294.294 0 0 1 .063-.095.112.112 0 0 1 .08-.032h.185c.029 0 .056.01.077.032.02.018.042.05.063.095l.347 1.127h-1.162zm-.42 3.51v-1.036h1.309v1.037c0 .095.024.161.071.204.048.042.12.063.22.063h1.116c.096 0 .164-.021.204-.063.043-.043.064-.109.064-.204v-1.955a2.29 2.29 0 0 0-.07-.511 5.928 5.928 0 0 0-.219-.675l-.645-1.683a.355.355 0 0 0-.135-.185.432.432 0 0 0-.236-.058h-1.992a.445.445 0 0 0-.24.058.373.373 0 0 0-.138.185l-.643 1.683c-.1.257-.172.482-.22.675a2.144 2.144 0 0 0-.069.51v1.956c0 .095.021.161.061.204.042.042.111.063.204.063h1.09c.093 0 .161-.021.204-.063.042-.043.063-.109.063-.204zm5.31.268c.095 0 .163-.021.203-.063.042-.043.064-.109.064-.204v-1.696h.979c.079 0 .137.021.177.066.04.045.058.106.058.185v1.445c0 .095.021.161.064.204.042.042.11.063.203.063h1.14c.096 0 .165-.021.204-.063.043-.043.064-.109.064-.204V28.87c0-.296-.082-.534-.249-.717a.918.918 0 0 0-.661-.29l.754-1.729c.034-.076.037-.137.008-.18-.03-.042-.085-.063-.17-.063h-1.14a.424.424 0 0 0-.23.056.365.365 0 0 0-.14.187l-.765 1.728h-.296V26.16c0-.095-.022-.161-.064-.203-.04-.043-.108-.064-.204-.064H73.92c-.093 0-.161.021-.204.064-.04.042-.06.108-.06.203v4.8c0 .095.02.161.06.204.043.042.111.063.204.063z"/>
</svg>
