<svg xmlns="http://www.w3.org/2000/svg" viewBox="0 0 60.897 45.673">
  <path fill="#2966cc" d="m60.848 25.656-.002-.243c-.106-.556-.139-1.198-.308-1.679-.171-1.245-.506-1.844-1.035-1.927-.805-.126-1.614-.069-2.416-.35-.338-.136-.675-.296-1.015-.4-.277-.083-.558-.1-.837-.147-.174-.036-.346-.14-.523-.081-.742-.206-1.49-.273-2.235-.383-.308-.045-.633.068-.847-.72-.053-.193-.155-.167-.241-.19-.088-.022-.167-.05-.206-.312-.053-.356-.148-.65-.243-.946-.058-.18-.144-.368-.064-.684.07-.28.156-.184.248-.176.447.038.89.236 1.339.175.236.2.48.165.722.167.43.128.866.354 1.23-.515a.937.937 0 0 0 .024-.356c.064-.43.244-.4.423-.377.008.001.015-.009.023-.014.086-.664.089-1.4.273-1.98a.488.488 0 0 0 .004-.216.243.243 0 0 0 .069-.052.586.586 0 0 1 .044-.071l.047-.001c.518-.122 1.04-.086 1.556-.298.23.034.438-.098.602-.542.053-.235.138-.427.146-.722a3.615 3.615 0 0 0-.025-1.23l-.154-1.058a2.04 2.04 0 0 0-.15-.717c-.027-.44-.079-.849-.22-1.148l-.197-.6c-.044-.453-.185-.722-.302-1.037-.048-.084-.05-.314-.137-.277a.179.179 0 0 0-.01-.087c-.107-.629-.326-1.034-.487-1.555-.115-.371-.196-.864-.4-1.022l.01.077-.01-.077c-.203-.336-.428-.5-.668-.544-.24-.315-.503-.323-.761-.397-.023-.03-.05-.047-.074-.04a3.315 3.315 0 0 0-1.314-.427c-.233-.117-.467-.201-.706-.165-.43-.349-.882-.32-1.324-.441a66.18 66.18 0 0 0-3.825-.917C46.42.86 45.967.654 45.51.79c-.065-.142-.146-.124-.224-.143-1.342-.314-2.69-.207-4.033-.453-.777-.142-1.56-.145-2.34-.074-.155-.166-.317-.04-.475-.075-.083-.088-.17-.018-.254-.024-.232-.016-.464.118-.696.006l-3.451.342c-.079.126-.168.068-.252.084-.373.074-.749.013-1.12.165l-.138.026a.378.378 0 0 0-.002.114c-.074-.1-.152-.036-.228-.032-.423.023-.838.287-1.264.242a3.396 3.396 0 0 1-.068.135l.004-.068a3.597 3.597 0 0 0-1.465.15l-.203.116-.458.066c-.047-.004-.094-.022-.14-.011a745.25 745.25 0 0 0-3.866.897c-.036.009-.07.07-.106.107-.879.297-1.756.622-2.636.882-.937.278-1.88.455-2.816.747-1.086.34-2.176.643-3.248 1.256-.374.215-.745.538-1.136.517a405.852 405.852 0 0 1-4.204-.249c-1.766-.114-3.532-.18-5.298-.095-1.22.06-2.442.2-3.663.304-.393-.066-.786-.19-1.178-.172-.168.007-.404-.049-.477.586C-.04 6.463.12 6.91 0 7.234l.01.6c.13.347-.017.857.109 1.206l.046.124c.02.117.052.197.1.237.058.287.172.418.273.543.208.26.297.62.285 1.228-.01.519.09.927.28 1.223.479.748 1.004 1.014 1.552 1.047.156.009.188.12.19.506.008.984-.03 2.007.236 2.858-.05.7.041 1.362.085 2.037.093.805.365 1.093.627 1.412l.093.098c.106.214.225.098.34.085l.053.093c.128.129.131-.152.166-.327.026-.132.018-.348.106-.335.07.01.09.195.131.306.15.395.131.915.173 1.389v.023c-.024.155.002.33-.03.482.051.741.058 1.51.227 2.204-.476.276-.935.538-1.393.81-.697.412-1.394.831-2.09 1.248-.308.102-.614.227-.9.551-.04.01-.074.041-.085.156a.15.15 0 0 0-.038.047l-.05.096c.004.14-.001.301.048.387.199.348.166.79.098 1.273a9.97 9.97 0 0 0-.09 1.938l.047.125c-.005.253.077.289.142.367.078.23.177.374.29.456.095.115.176.317.29.318l.283.22c.188.195.383.225.582.15l.094-.022.022.014.022-.01c.21.022.42.026.624-.143.174-.077.357.017.526-.174 2.85-.924 7.138-1.819 7.526-1.543-.526.162-1.024.34-1.523.462-1.55.38-3.093.89-4.625 1.604-.518.242-1.037.472-1.542.863-.203.158-.413.322-.484.935-.08.151-.047.367-.045.556.008.74.002 1.485.036 2.218.061 1.291.008 2.636.255 3.849.017.12.052.196.096.246.468 1.007 1.027 1.226 1.607 1.11.902-.182 1.8-.468 2.7-.655 1.27-.263 2.538-.659 3.815-.362.258.06.514.13.773.104.038.035.077.03.117.03.097-.001.194-.01.29-.02.406.011.812.025 1.218.013l.116-.003c.03.004.059.004.088-.001.782-.021 1.564-.028 2.346-.053.658-.02 1.32.031 1.98.027.031.024.063.047.09.008l.025.002.01.01c.035.003.07.003.106 0 .792.072 1.585.155 2.378.19.352.017.705.14 1.057.012.236.02.472.036.707.06 2.124.222 4.245-.1 6.368-.205 1.25-.063 2.5-.024 3.748-.188.28.153.558-.011.837-.022.641-.024 1.283-.103 1.925-.03l1.074.156c.635.247 1.274.352 1.915.412.112.118.232.09.35.103.809.099 1.617.255 2.425.373 1.13.165 2.257.47 3.385.726 1.08.245 2.159.517 3.24.75.586.126 1.17.325 1.76.3.027.037.054.1.081.105.909.15 1.817.294 2.726.439l.183.009c.01.012.021.013.032.011.858.322 1.723.436 2.588.56.169.066.338.12.51.088.02.021.042.033.063.031l.094.047c.213.086.431.033.645.126l.02-.002c0 .014.002.027.003.04.126.005.253-.01.374.102l.005-.097.135-.043c.03-.16.051-.33.087-.486.113-.495.21-.96.188-1.608-.017-.513.128-.994.338-1.275.172-.23.216.194.317.32.094.12.193.254.286.052.096-.21.226-.413.144-.834-.056-.086-.045-.238-.056-.368-.091-.077-.223.134-.276-.177-.05-.294.11-.343.139-.563a.317.317 0 0 0-.006-.113l-.056-.228c-.009-.065-.021-.119-.054-.1-.068-.13-.045-.422-.14-.504l-.103-.336c-.028-.157-.07-.257-.143-.248-.72-.723-1.484-.84-2.24-1.085l-1.434-.586c-.733-.473-1.483-.66-2.232-.863-.034-.13-.122-.008-.147-.184l.379-.123a.557.557 0 0 0 .195-.063l.126-.03 1.693-.157c.018.02.037.033.054.035.159.089.32.018.48.044.486.079.822-.45 1.025-1.56l.172-.51c.136-.167.186-.524.203-.83.026-.462.126-.46.259-.45.313.027.626.042.94.061.235.131.472.047.708.051.481.19.966.036 1.45.094.24.03.472-.203.68-.537.135-.081.17-.381.22-.648.094-.37.034-.718-.026-1.062-.052-.298-.025-.453.11-.45.046.002.093.01.135-.058-.014-.209.022-.444-.053-.619l-.014-.346.042-.366c.074-.256.213-.373.242-.73.011.006.021-.002.03-.022.142-.774.212-1.57.11-2.415zm-8.225-8.162v-.004l.004.002-.004.002zm1.95-1.12-.001-.061.016.059-.015.002zm.81-2.456.002.092-.016.003.014-.095zm1.774-.187v-.005l.004.005h-.004zM5.5 20.058l.006-.034.01.033-.016.001zm8.732 21.326v.002-.002zM25.065 2.358v.014l-.004-.014h.004zm31.768 41.227-.007.082a.309.309 0 0 0-.02-.06c.009-.007.017-.016.027-.022z"/>
  <path fill="#fad61d" d="M16.12 24.757c.226 0 .393-.046.501-.137.109-.091.162-.233.162-.424v-.314c0-.167-.035-.294-.105-.38-.071-.087-.18-.137-.325-.15a.308.308 0 0 0 .152-.136.491.491 0 0 0 .05-.234v-.165c0-.177-.054-.309-.161-.394-.108-.086-.273-.129-.496-.129h-1.091c-.044 0-.075.01-.095.03-.019.019-.029.05-.029.093v2.217c0 .043.01.075.03.094.019.02.05.029.094.029Zm-.667-1.881h.29c.044 0 .076.01.098.034.022.023.033.057.033.102v.096c0 .046-.011.08-.033.103-.022.023-.054.034-.097.034h-.291Zm0 .896h.445c.043 0 .075.01.097.032.022.022.033.056.033.101v.134c0 .045-.011.08-.033.102-.022.023-.054.034-.097.034h-.445Zm4.104.985c.044 0 .076-.01.095-.029.019-.02.029-.05.029-.094v-.4c0-.044-.01-.075-.03-.094-.018-.02-.05-.03-.094-.03h-.943v-.294h.667c.043 0 .074-.01.094-.029.02-.019.029-.05.029-.094v-.366c0-.043-.01-.075-.03-.094-.019-.019-.05-.029-.093-.029h-.667v-.263h.943c.044 0 .076-.01.095-.03.019-.019.029-.05.029-.094v-.4c0-.043-.01-.074-.03-.093-.018-.02-.05-.03-.094-.03H17.97c-.043 0-.074.01-.093.03-.02.019-.03.05-.03.093v2.217c0 .043.01.075.03.094.019.02.05.029.093.029zm2.953 0c.043 0 .074-.01.094-.029.02-.02.029-.05.029-.094v-.407c0-.043-.01-.075-.03-.094-.019-.02-.05-.03-.093-.03h-.818l.793-.96a.325.325 0 0 0 .066-.098.313.313 0 0 0 .02-.118v-.51c0-.043-.01-.074-.03-.093-.018-.02-.05-.03-.093-.03h-1.573c-.044 0-.075.01-.094.03-.02.019-.03.05-.03.093v.414c0 .043.01.075.03.094.019.02.05.03.094.03h.731l-.83 1.008a.342.342 0 0 0-.066.098.303.303 0 0 0-.02.114v.459c0 .043.01.075.029.094.02.02.05.029.094.029zm4.74-.646v-1.167c0-.105-.015-.2-.046-.286a.483.483 0 0 0-.164-.22.854.854 0 0 0-.325-.144 2.237 2.237 0 0 0-.525-.051 2.26 2.26 0 0 0-.527.051.862.862 0 0 0-.326.144.487.487 0 0 0-.165.22.844.844 0 0 0-.046.286v1.167c0 .104.016.2.046.285a.477.477 0 0 0 .165.219c.078.06.187.108.326.142.14.034.315.051.527.051.212 0 .387-.017.525-.051a.87.87 0 0 0 .325-.142.474.474 0 0 0 .164-.219.832.832 0 0 0 .046-.285zm-1.347-.124v-.92c0-.043.017-.08.051-.111.034-.03.113-.046.236-.046.123 0 .202.015.236.046a.145.145 0 0 1 .051.111v.92a.148.148 0 0 1-.05.115c-.035.031-.114.046-.237.046-.123 0-.202-.015-.236-.046a.148.148 0 0 1-.051-.115zm3.903.77c.226 0 .392-.046.5-.137.11-.091.163-.233.163-.424v-.314c0-.167-.035-.294-.106-.38-.07-.087-.18-.137-.325-.15a.304.304 0 0 0 .152-.136.485.485 0 0 0 .05-.234v-.165c0-.177-.053-.309-.16-.394-.108-.086-.273-.129-.497-.129h-1.09c-.044 0-.075.01-.095.03-.02.019-.03.05-.03.093v2.217c0 .043.01.075.03.094.02.02.05.029.094.029zm-.668-1.881h.291c.044 0 .076.01.098.034.021.023.032.057.032.102v.096c0 .046-.01.08-.032.103-.022.023-.054.034-.098.034h-.29zm0 .896h.445c.044 0 .076.01.098.032.021.022.032.056.032.101v.134c0 .045-.01.08-.032.102-.022.023-.054.034-.098.034h-.445zm3.168-.862h.256c.06 0 .1.015.12.046.02.031.03.07.03.115v.116a.2.2 0 0 1-.03.115c-.02.03-.06.046-.12.046h-.256zm-.123 1.847c.043 0 .075-.01.094-.029.02-.02.029-.05.029-.094v-.67h.479c.048 0 .081.011.1.035.02.024.03.061.03.112v.523c0 .043.01.075.029.094.02.02.05.029.094.029h.53c.044 0 .075-.01.094-.029.02-.02.03-.05.03-.094v-.725a.504.504 0 0 0-.115-.346.453.453 0 0 0-.3-.15.264.264 0 0 0 .149-.146.626.626 0 0 0 .043-.244v-.157a.588.588 0 0 0-.146-.413c-.097-.106-.272-.159-.528-.159h-1.14c-.042 0-.074.01-.093.03-.02.019-.029.05-.029.093v2.217c0 .043.01.075.03.094.018.02.05.029.093.029zm3.468-1.745c.01-.02.02-.035.03-.044a.052.052 0 0 1 .035-.014h.086c.013 0 .025.005.036.014a.13.13 0 0 1 .029.044l.16.52h-.537zm-.195 1.622v-.479h.606v.479c0 .043.01.075.032.094.022.02.056.029.101.029h.517c.043 0 .074-.01.094-.029.02-.02.029-.05.029-.094v-.903a.945.945 0 0 0-.033-.236 2.622 2.622 0 0 0-.1-.312l-.298-.776a.16.16 0 0 0-.064-.086.197.197 0 0 0-.107-.027h-.92a.202.202 0 0 0-.111.027.162.162 0 0 0-.064.086l-.298.776c-.045.12-.079.223-.1.312a1.004 1.004 0 0 0-.033.236v.903c0 .043.01.075.03.094.018.02.05.029.093.029h.503c.043 0 .075-.01.094-.029.02-.02.03-.05.03-.094zm.907-2.6a.168.168 0 0 0 .094-.032c.02-.017.03-.048.03-.091v-.328c0-.039-.01-.069-.03-.09-.02-.02-.049-.028-.088-.023l-1.193.147a.171.171 0 0 0-.094.032c-.02.017-.03.048-.03.09v.33c0 .038.01.068.03.089.02.02.048.028.087.024zm3.317 2.723c.044 0 .075-.01.095-.029.019-.02.029-.05.029-.094v-.407c0-.043-.01-.075-.03-.094-.019-.02-.05-.03-.094-.03h-.817l.794-.96a.335.335 0 0 0 .065-.098.313.313 0 0 0 .02-.118v-.51c0-.043-.01-.074-.029-.093-.019-.02-.05-.03-.094-.03h-1.573c-.044 0-.075.01-.095.03-.019.019-.029.05-.029.093v.414c0 .043.01.075.03.094.02.02.05.03.094.03h.732l-.832 1.008a.329.329 0 0 0-.065.098.303.303 0 0 0-.02.114v.459c0 .043.01.075.03.094.018.02.05.029.093.029zm1.854 0c.044 0 .075-.01.095-.029.019-.02.029-.05.029-.094v-.784h.451c.037 0 .064.01.082.032.018.02.028.048.028.085v.667c0 .043.01.075.029.094.02.02.05.029.094.029h.527c.043 0 .074-.01.093-.029.02-.02.03-.05.03-.094v-.965a.466.466 0 0 0-.115-.33.427.427 0 0 0-.306-.135l.349-.797c.016-.036.017-.064.004-.083-.014-.02-.04-.03-.08-.03h-.526a.197.197 0 0 0-.106.026.172.172 0 0 0-.065.087l-.352.797h-.137v-.787c0-.043-.01-.074-.03-.093-.019-.02-.05-.03-.094-.03h-.53c-.043 0-.074.01-.094.03-.02.019-.029.05-.029.093v2.217c0 .043.01.075.03.094.019.02.05.029.093.029zm4.68-.646v-1.694c0-.043-.01-.074-.03-.093-.018-.02-.05-.03-.093-.03h-.52c-.043 0-.075.01-.094.03-.02.019-.03.05-.03.093v1.56a.148.148 0 0 1-.05.114c-.035.032-.113.047-.233.047-.119 0-.195-.015-.23-.047a.148.148 0 0 1-.05-.114v-1.56c0-.043-.01-.074-.03-.093-.02-.02-.05-.03-.094-.03h-.537c-.043 0-.075.01-.094.03-.02.019-.029.05-.029.093v1.694c0 .104.015.2.046.285.03.086.086.159.165.219a.87.87 0 0 0 .322.142c.137.034.312.051.524.051.212 0 .387-.017.523-.051a.874.874 0 0 0 .323-.142.474.474 0 0 0 .165-.219.844.844 0 0 0 .046-.285zm-.315-2.757c0-.073-.01-.14-.032-.2A.329.329 0 0 0 45.75 21a.623.623 0 0 0-.227-.1 1.553 1.553 0 0 0-.366-.036c-.148 0-.27.012-.366.036a.623.623 0 0 0-.227.1.325.325 0 0 0-.117.154.585.585 0 0 0-.032.2v.335c0 .073.01.14.032.2s.06.112.117.154a.623.623 0 0 0 .227.1c.096.023.218.035.366.035s.27-.012.366-.036a.623.623 0 0 0 .227-.1.329.329 0 0 0 .117-.153.585.585 0 0 0 .032-.2zm-.537.222c0 .05-.012.087-.038.111-.024.024-.08.036-.164.036s-.138-.012-.16-.036c-.023-.024-.035-.061-.035-.11v-.12a.14.14 0 0 1 .034-.102c.023-.024.077-.035.161-.035.085 0 .14.011.164.035.026.024.038.058.038.101z"/>
</svg>
