<?xml version="1.0" standalone="no"?>
<!DOCTYPE svg PUBLIC "-//W3C//DTD SVG 20010904//EN"
 "http://www.w3.org/TR/2001/REC-SVG-20010904/DTD/svg10.dtd">
<svg version="1.0" xmlns="http://www.w3.org/2000/svg"
 width="832.000000pt" height="832.000000pt" viewBox="0 0 832.000000 832.000000"
 preserveAspectRatio="xMidYMid meet">
<metadata>
Created by potrace 1.14, written by Peter Selinger 2001-2017
</metadata>
<g transform="translate(0.000000,832.000000) scale(0.100000,-0.100000)"
fill="#000000" stroke="none">
<path d="M3880 8310 c-610 -58 -1164 -251 -1645 -571 -222 -148 -353 -256
-545 -448 -286 -286 -475 -545 -650 -893 -192 -379 -301 -736 -356 -1173 -23
-176 -26 -589 -5 -745 84 -654 345 -1245 839 -1899 396 -526 797 -938 1872
-1926 173 -160 395 -366 493 -458 98 -93 193 -175 212 -183 46 -19 102 -17
147 4 20 9 108 85 195 167 87 83 365 342 618 575 770 710 1100 1037 1428 1415
1018 1169 1356 2197 1110 3369 -214 1025 -900 1919 -1833 2390 -384 195 -723
300 -1145 357 -172 23 -580 33 -735 19z m453 -361 c20 -11 23 -49 5 -67 -8 -8
-62 -12 -177 -12 -581 0 -1141 -159 -1639 -466 -874 -539 -1428 -1471 -1488
-2502 -6 -105 -10 -124 -25 -133 -19 -10 -59 3 -59 19 10 304 40 556 90 762
254 1047 1019 1889 2035 2240 221 76 514 138 755 159 128 12 481 11 503 0z
m172 -584 c277 -37 548 -120 800 -244 516 -255 913 -653 1165 -1166 94 -191
139 -310 186 -494 184 -712 57 -1459 -351 -2071 -415 -623 -1087 -1035 -1835
-1126 -202 -24 -544 -16 -740 19 -1034 183 -1845 954 -2075 1974 -80 357 -80
757 1 1123 100 449 331 879 654 1214 147 152 271 256 440 367 352 233 766 378
1195 418 134 13 412 6 560 -14z"/>
<path d="M4013 6455 c-178 -48 -317 -182 -364 -350 -22 -78 -17 -246 10 -320
42 -117 128 -220 238 -284 32 -19 68 -40 81 -48 20 -13 22 -20 22 -116 0 -67
-4 -107 -12 -115 -8 -8 -45 -12 -100 -12 -97 0 -128 -15 -128 -65 0 -50 31
-65 128 -65 87 0 112 -8 112 -37 0 -10 -25 -13 -104 -13 -115 0 -129 -7 -129
-61 0 -49 19 -59 115 -62 54 -1 91 -7 101 -16 15 -12 17 -59 17 -485 0 -354
-3 -475 -12 -484 -49 -49 -341 57 -516 189 -116 87 -116 90 -3 203 96 97 109
124 69 149 -29 18 -828 150 -851 141 -9 -3 -20 -17 -23 -30 -8 -30 107 -831
122 -852 6 -8 23 -14 38 -14 21 0 50 21 125 96 54 53 103 96 108 96 6 0 58
-36 117 -80 179 -134 332 -213 514 -266 96 -28 246 -54 308 -54 64 0 72 -12
94 -135 21 -114 33 -135 75 -135 42 0 54 21 75 135 22 123 30 135 94 135 62 0
212 26 308 54 184 54 347 139 526 274 53 39 100 72 105 72 5 0 51 -40 101 -89
50 -49 100 -93 111 -99 25 -12 62 1 68 25 15 52 118 816 113 837 -3 13 -14 27
-23 30 -23 9 -822 -123 -850 -141 -41 -25 -28 -52 68 -149 113 -113 113 -116
-3 -203 -177 -133 -466 -239 -516 -189 -17 17 -17 949 0 966 7 7 43 12 93 12
101 0 125 14 125 70 0 53 -17 60 -134 60 -53 0 -96 3 -96 6 0 3 5 14 10 25 9
17 22 19 100 19 100 0 130 15 130 65 0 50 -30 65 -130 65 -110 0 -112 2 -108
137 l3 98 75 40 c221 118 332 361 275 604 -22 93 -69 173 -141 240 -106 100
-221 141 -384 140 -52 0 -119 -7 -147 -14z m278 -261 c88 -44 131 -119 133
-230 2 -129 -67 -223 -196 -268 l-63 -22 -63 22 c-83 28 -130 68 -167 139 -66
129 -21 295 97 356 85 44 177 45 259 3z"/>
</g>
</svg>
